HIERARCHY
ROOT Hips
{
	OFFSET -3.958830 18.904000 13.208200
	CHANNELS 6 Xposition Yposition Zposition Zrotation Yrotation Xrotation 
	JOINT LHipJoint
	{
		OFFSET 0.000000 0.000000 0.000000
		CHANNELS 3 Zrotation Yrotation Xrotation
		JOINT LeftUpLeg
		{
			OFFSET 1.800000 -1.400000 0.085000
			CHANNELS 3 Zrotation Yrotation Xrotation
			JOINT LeftLeg
			{
				OFFSET 2.215000 -6.000000 0.000000
				CHANNELS 3 Zrotation Yrotation Xrotation
				JOINT LeftFoot
				{
					OFFSET 2.500000 -6.900000 0.000000
					CHANNELS 3 Zrotation Yrotation Xrotation
					JOINT LeftToeBase
					{
						OFFSET 0.200000 -0.500000 1.950000
						CHANNELS 3 Zrotation Yrotation Xrotation
						End Site
						{
							OFFSET 0.000000 0.000000 0.000000
						}
					}
				}
			}
		}
	}
	JOINT RHipJoint
	{
		OFFSET 0.000000 0.000000 0.000000
		CHANNELS 3 Zrotation Yrotation Xrotation
		JOINT RightUpLeg
		{
			OFFSET -1.800000 -1.400000 0.085000
			CHANNELS 3 Zrotation Yrotation Xrotation
			JOINT RightLeg
			{
				OFFSET -2.215000 -6.000000 0.000000
				CHANNELS 3 Zrotation Yrotation Xrotation
				JOINT RightFoot
				{
					OFFSET -2.500000 -6.900000 0.000000
					CHANNELS 3 Zrotation Yrotation Xrotation
					JOINT RightToeBase
					{
						OFFSET -0.200000 -0.500000 1.950000
						CHANNELS 3 Zrotation Yrotation Xrotation
						End Site
						{
							OFFSET 0.000000 0.000000 0.000000
						}
					}
				}
			}
		}
	}
	JOINT LowerBack
	{
		OFFSET 0.000000 0.000000 0.000000
		CHANNELS 3 Zrotation Yrotation Xrotation
		JOINT Spine
		{
			OFFSET -0.087000 1.940000 -0.288900
			CHANNELS 3 Zrotation Yrotation Xrotation
			JOINT Spine1
			{
				OFFSET 0.000000 1.950000 0.060000
				CHANNELS 3 Zrotation Yrotation Xrotation
				JOINT Neck
				{
					OFFSET 0.000000 0.000000 0.000000
					CHANNELS 3 Zrotation Yrotation Xrotation
					JOINT Neck1
					{
						OFFSET 0.000000 1.600000 0.340000
						CHANNELS 3 Zrotation Yrotation Xrotation
						JOINT Head
						{
							OFFSET 0.000000 1.667000 -0.240000
							CHANNELS 3 Zrotation Yrotation Xrotation
							End Site
							{
								OFFSET 0.000000 0.000000 0.000000
							}
						}
					}
				}
				JOINT LeftShoulder
				{
					OFFSET 0.000000 0.000000 0.000000
					CHANNELS 3 Zrotation Yrotation Xrotation
					JOINT LeftArm
					{
						OFFSET 2.700000 1.550000 -0.730000
						CHANNELS 3 Zrotation Yrotation Xrotation
						JOINT LeftForeArm
						{
							OFFSET 5.450000 0.000000 0.000000
							CHANNELS 3 Zrotation Yrotation Xrotation
							JOINT LeftHand
							{
								OFFSET 3.450000 0.000000 0.000000
								CHANNELS 3 Zrotation Yrotation Xrotation
								JOINT LeftHandIndex1
								{
									OFFSET 0.750000 0.000000 0.000000
									CHANNELS 3 Zrotation Yrotation Xrotation
									End Site
									{
										OFFSET 0.000000 0.000000 0.000000
									}
								}
							}
						}
					}
				}
				JOINT RightShoulder
				{
					OFFSET 0.000000 0.000000 0.000000
					CHANNELS 3 Zrotation Yrotation Xrotation
					JOINT RightArm
					{
						OFFSET -2.700000 1.550000 -0.730000
						CHANNELS 3 Zrotation Yrotation Xrotation
						JOINT RightForeArm
						{
							OFFSET -5.450000 0.000000 0.000000
							CHANNELS 3 Zrotation Yrotation Xrotation
							JOINT RightHand
							{
								OFFSET -3.450000 0.000000 0.000000
								CHANNELS 3 Zrotation Yrotation Xrotation
								JOINT RightHandIndex1
								{
									OFFSET -0.750000 0.000000 0.000000
									CHANNELS 3 Zrotation Yrotation Xrotation
									End Site
									{
										OFFSET 0.000000 0.000000 0.000000
									}
								}
							}
						}
					}
				}
			}
		}
	}
}
MOTION
Frames: 9
Frame Time: 0.016667
0.435160 17.369770 -1.228270 -2.750304 7.080794 -5.103893 -15.460978 15.029015 3.722694 1.588984 -0.226604 -4.554320 -7.284797 5.606558 9.362438 0.149725 3.670662 3.133701 0.512810 0.418130 0.601480 17.622463 -10.536846 2.891381 -1.432844 0.179955 -9.089701 4.832668 -4.796896 15.895258 -0.411156 -2.738832 3.291726 0.035110 -0.471800 0.029340 -2.478426 -5.296344 -8.506384 10.725056 -5.434668 26.108379 -4.116483 0.531156 -21.045650 6.528885 -1.761845 -16.336111 -14.638529 5.240871 72.689586 -4.666380 -2.735700 -2.792730 -4.762035 0.670167 4.037597 -17.994990 -2.567006 3.976393 120.864421 -14.048892 -17.322033 -3.080258 3.070636 0.570160 -0.454050 0.527310 0.017940 -5.294953 5.077101 10.321474 25.781912 -17.405909 -8.704365 -125.854660 16.709733 -29.246427 2.671344 -2.159187 0.141070 -0.024100 -0.340270 -0.053450 
0.451620 17.357980 -1.220770 -3.184384 6.530994 -4.554052 -15.426681 14.992298 3.712511 1.800123 -0.307773 -4.840917 -7.421305 5.543774 9.010857 0.114673 3.659537 3.138783 0.547950 0.451660 0.633870 17.666009 -10.495553 2.941478 -0.931596 0.196708 -8.896317 4.660088 -4.553374 14.652711 -0.419668 -2.659670 3.306247 0.069670 -0.469520 0.035530 -2.569146 -5.280838 -8.513720 12.380882 -5.747391 25.018557 -5.188696 0.378623 -21.263236 6.503194 -1.967172 -16.232874 -15.051181 6.031995 73.414835 -4.251090 -2.171960 -2.812910 -5.389366 0.164072 3.696024 -17.869612 -3.344150 3.607460 120.620064 -10.643338 -11.434040 -3.094178 3.124438 0.579230 -0.448910 0.534950 0.026360 -4.763477 5.741914 10.232745 25.755580 -15.403483 -8.459330 -125.455260 14.230146 -24.320143 2.680952 -2.200325 0.132460 -0.014160 -0.355440 -0.062340 
0.458030 17.337680 -1.189150 -3.403763 3.962602 -2.958605 -15.373247 14.896430 3.745313 1.826829 -0.547186 -5.714364 -8.295036 5.520086 8.462784 0.051619 3.652935 3.118306 0.599230 0.492200 0.699070 17.718978 -10.474696 3.022079 -0.421209 0.432864 -9.312561 4.366895 -4.123799 12.856711 -0.418614 -2.500790 3.319953 0.115950 -0.478180 0.057450 -2.637211 -5.116100 -8.566547 13.627354 -5.208487 22.834187 -6.141517 0.963201 -23.327273 6.218211 -2.111352 -16.412624 -15.123810 7.395313 76.190058 -3.055550 -1.055940 -1.976370 -5.787689 -0.688555 3.337655 -17.686622 -4.224778 3.395176 121.077862 -4.375352 0.223989 -3.134957 3.241698 0.596890 -0.438530 0.548060 0.010400 -3.812420 7.055632 10.271686 25.637819 -12.090017 -7.577922 -123.733063 9.712429 -14.209274 2.714327 -2.248156 0.126900 -0.019770 -0.361270 -0.090540 
0.453340 17.313870 -1.189510 -3.569684 1.474532 -2.342213 -15.351163 14.878816 3.728888 1.866427 -0.686909 -6.386188 -8.564994 5.621262 9.198729 0.027908 3.654559 3.087452 0.642020 0.563040 0.723030 17.735177 -10.466571 3.080597 -0.203846 0.550925 -9.120874 4.363873 -3.917785 11.720711 -0.435031 -2.458502 3.314462 0.163710 -0.484610 0.072010 -2.615316 -5.045950 -8.567336 13.867409 -4.343438 22.341189 -6.022972 1.937418 -24.904931 5.756846 -2.308314 -16.491800 -15.605236 8.738348 78.552952 -1.847910 -0.170650 -1.841290 -6.142839 -1.869995 3.191323 -17.374382 -5.579122 3.070347 121.966900 1.544580 11.055645 -3.176381 3.352516 0.586240 -0.427520 0.567040 0.010030 -2.420183 8.650852 10.121833 24.759180 -9.084259 -7.107692 -121.321896 4.308677 -3.459004 2.768563 -2.286539 0.143970 -0.021380 -0.370310 -0.090180 
0.451540 17.294330 -1.181710 -3.413309 -0.383718 -1.065708 -15.335497 14.851846 3.753621 1.240844 -0.893932 -7.607931 -8.517700 5.528183 9.508713 -0.019054 3.549526 3.131402 0.652880 0.586920 0.723800 17.727732 -10.496963 3.135048 -0.751868 0.724363 -9.577443 4.980201 -3.789541 10.415399 -0.433691 -2.393430 3.341544 0.190750 -0.460630 0.060280 -2.570727 -4.920694 -8.627870 13.547610 -3.347626 21.361253 -5.848835 2.888370 -26.917426 5.482990 -2.195576 -16.842704 -14.901549 8.701533 80.685486 -1.120810 -0.136950 -1.230960 -6.245285 -2.783994 3.268446 -17.003906 -5.705638 3.083243 122.973530 4.693374 17.744713 -3.188491 3.379573 0.596490 -0.417280 0.573470 0.031480 -1.645353 9.973326 10.273303 24.138264 -7.303266 -6.624815 -119.684245 -0.087640 4.978941 2.819192 -2.288839 0.120950 0.017220 -0.380760 -0.085290 
0.452590 17.268580 -1.206600 -3.538000 -1.812515 -1.499904 -15.324077 14.842688 3.735895 1.179572 -0.895540 -7.538868 -8.580328 5.659891 10.152174 0.017380 3.577510 3.122805 0.652600 0.598250 0.731210 17.736764 -10.523545 3.132736 -1.152008 0.573793 -8.803192 5.235836 -3.867734 10.099993 -0.455098 -2.462544 3.336837 0.181030 -0.466190 0.061300 -2.557649 -4.861035 -8.607497 13.682179 -3.041510 22.526735 -6.578293 3.396162 -26.817763 5.622023 -1.798000 -17.278500 -13.439047 7.936214 81.402449 -2.041890 0.172790 -1.170880 -6.447715 -3.858801 3.571879 -15.739431 -5.320756 2.693299 122.635969 4.247165 16.505514 -3.178479 3.356977 0.581440 -0.413630 0.587440 0.037000 -1.783744 11.181332 10.656528 25.826403 -6.546508 -7.290001 -119.212578 -1.172407 5.949216 2.847167 -2.282913 0.138940 0.022180 -0.392300 -0.075210 
0.465930 17.245020 -1.295270 -4.269016 -2.521005 -5.407446 -15.381509 14.941612 3.612335 2.625044 -0.454400 -4.765687 -8.458877 6.173822 11.573023 0.066384 3.954560 2.966716 0.661330 0.588370 0.770170 17.723022 -10.409398 3.082975 -1.407581 -0.144383 -4.944681 5.529120 -4.324563 10.203359 -0.565310 -2.792239 3.209993 0.161940 -0.539290 0.072120 -2.451351 -5.226804 -8.474362 14.170277 -3.811108 27.895030 -7.250121 3.454180 -23.197550 6.445822 -1.589556 -17.421662 -12.731152 7.396377 80.648736 -3.590790 0.328820 -5.310680 -8.650770 -5.315663 3.632839 -13.639336 -3.850190 1.215545 122.674494 0.416806 7.428471 -3.112766 3.275411 0.643270 -0.466850 0.626060 -0.009180 -1.483049 12.810426 11.258434 26.415599 -6.891946 -9.268975 -118.319323 2.306668 -3.013047 2.775989 -2.193816 0.150690 0.005610 -0.373180 -0.111670 
0.470170 17.243250 -1.457620 -4.540304 -2.715468 -13.314676 -15.438276 14.934586 3.488242 4.415175 0.477430 1.963570 -7.824142 6.866833 12.569215 0.256208 4.616808 2.762982 0.631960 0.542100 0.769160 17.749708 -10.289732 2.990665 -2.874431 -1.360842 1.827712 6.068759 -5.338383 11.286189 -0.762810 -3.501111 2.977593 0.101820 -0.591110 0.077710 -2.434108 -5.424326 -8.311862 13.125830 -4.920145 38.245108 -7.056969 2.569211 -14.333359 6.937803 -2.048892 -17.110678 -13.905846 6.911767 75.401416 -3.929050 -0.503580 -13.408580 -11.767544 -8.383462 3.935453 -9.512228 -0.874160 -2.473263 121.842837 -5.496710 -8.342839 -3.053379 3.119918 0.714540 -0.543380 0.664620 -0.046550 -0.118630 15.497238 11.771002 23.792619 -9.379687 -13.427397 -116.396538 8.204480 -17.902896 2.700023 -2.015533 0.159920 0.007480 -0.347230 -0.125370 
0.466990 17.249220 -1.621190 -4.264566 -2.325223 -20.006046 -15.441607 14.834565 3.422518 5.168808 1.155363 7.088445 -6.805092 7.398645 13.908529 0.469073 5.169654 2.656855 0.499980 0.375060 0.679530 17.797734 -10.327624 2.878513 -4.398807 -1.874559 5.940802 6.393727 -6.360620 14.270718 -0.822498 -4.195677 2.780243 -0.009920 -0.528930 0.106980 -2.521310 -5.218370 -8.180229 11.690909 -5.020016 46.455946 -6.384181 1.418564 -1.545315 6.767489 -2.534990 -15.344204 -13.315841 4.033781 60.911884 -5.346340 -0.546070 -18.691670 -10.758293 -10.680591 4.207775 -6.422259 0.570289 -7.148917 117.960430 -11.293285 -23.289299 -3.160157 3.065867 0.661230 -0.504410 0.582570 -0.069190 -1.895755 16.446869 11.406756 23.117491 -11.317880 -18.309469 -112.964846 15.156831 -32.969348 2.679937 -1.942281 0.146570 -0.041340 -0.295550 -0.113350 
